<svg width="238" height="49" viewBox="0 0 238 49" fill="none" xmlns="http://www.w3.org/2000/svg">
<rect width="238" height="49" rx="24.5" fill="url(#paint0_linear_5_27)"/>
<path d="M22.65 34.39C18.33 34.39 15.84 31.12 15.84 26.77C15.84 22.45 18.51 19.15 22.71 19.15C24.81 19.15 26.46 20.14 27.24 21.61V19.54H31.8V34H27.24V31.96C26.46 33.4 24.66 34.39 22.65 34.39ZM23.97 30.58C26.25 30.58 27.42 28.87 27.42 26.77C27.42 24.7 26.25 22.99 23.97 22.99C21.84 22.99 20.52 24.58 20.52 26.77C20.52 28.96 21.84 30.58 23.97 30.58ZM37.8907 18.28C36.2407 18.28 35.0707 17.02 35.0707 15.49C35.0707 13.93 36.2407 12.67 37.8907 12.67C39.5407 12.67 40.7407 13.93 40.7407 15.49C40.7407 17.02 39.5407 18.28 37.8907 18.28ZM40.1707 34H35.6107V19.54H40.1707V34ZM54.3396 21.61V13H58.8996V34H54.3396V31.96C53.5596 33.4 51.7596 34.39 49.7496 34.39C45.4296 34.39 42.9396 31.12 42.9396 26.77C42.9396 22.45 45.6096 19.15 49.8096 19.15C51.9096 19.15 53.5596 20.14 54.3396 21.61ZM51.0696 30.58C53.3496 30.58 54.5196 28.87 54.5196 26.77C54.5196 24.7 53.3496 22.99 51.0696 22.99C48.9396 22.99 47.6196 24.58 47.6196 26.77C47.6196 28.96 48.9396 30.58 51.0696 30.58ZM76.9303 26.02C76.9303 26.77 76.9003 27.22 76.8103 28.03H66.1303C66.2203 29.92 67.4803 30.94 69.5203 30.94C70.9303 30.94 71.8303 30.55 72.2203 29.65H76.7203C76.2703 32.5 73.3603 34.39 69.5203 34.39C64.6003 34.39 61.5703 31.6 61.5703 26.77C61.5703 22.03 64.6603 19.15 69.3703 19.15C73.8703 19.15 76.9303 21.94 76.9303 26.02ZM66.1303 25.18H72.4003C72.3703 23.26 71.2903 22.24 69.3403 22.24C67.3603 22.24 66.1603 23.41 66.1303 25.18ZM85.4046 34.39C81.2946 34.39 78.5646 32.47 78.5646 29.65H83.1246C83.1246 30.64 84.0846 31.33 85.4946 31.33C86.4846 31.33 87.1746 30.85 87.1746 30.01C87.1746 29.35 86.8446 28.96 85.6146 28.66L82.5846 27.91C80.2746 27.34 78.9546 25.87 78.9546 23.68C78.9546 20.95 81.4146 19.15 85.1346 19.15C89.2146 19.15 91.5846 20.74 91.5846 23.62H87.0546C87.0546 22.6 86.3046 22.06 85.0746 22.06C84.0846 22.06 83.4246 22.54 83.4246 23.23C83.4246 23.89 83.8446 24.31 85.0146 24.61L88.0746 25.45C90.3546 26.05 91.7346 27.43 91.7346 29.62C91.7346 32.62 89.2446 34.39 85.4046 34.39ZM96.8653 18.28C95.2153 18.28 94.0453 17.02 94.0453 15.49C94.0453 13.93 95.2153 12.67 96.8653 12.67C98.5153 12.67 99.7153 13.93 99.7153 15.49C99.7153 17.02 98.5153 18.28 96.8653 18.28ZM99.1453 34H94.5853V19.54H99.1453V34ZM113.314 21.61V19.54H117.904V33.07C117.874 35.86 116.884 37.93 115.114 39.16C113.794 40.09 112.024 40.45 109.954 40.45C107.884 40.45 106.144 40.12 104.734 39.28C103.264 38.38 102.214 36.82 102.154 35.26H106.834C107.044 36.4 108.034 37.09 109.894 37.09C112.024 37.09 113.314 36.16 113.314 33.58V31.66C112.594 33.1 110.674 34 108.784 34C104.494 34 101.914 30.88 101.914 26.62C101.914 22.36 104.674 19.15 108.844 19.15C110.824 19.15 112.594 20.11 113.314 21.61ZM110.044 30.46C112.234 30.46 113.524 28.78 113.524 26.68C113.524 24.58 112.234 22.9 110.044 22.9C107.974 22.9 106.624 24.49 106.624 26.68C106.624 28.87 107.974 30.46 110.044 30.46ZM126.275 34H121.685V19.54H126.275V21.64C127.115 20.02 128.765 19.15 130.955 19.15C134.465 19.15 136.235 21.13 136.235 25.06V34H131.615V26.56C131.615 24.13 130.925 23.02 129.065 23.02C127.235 23.02 126.275 24.22 126.275 26.44V34Z" fill="url(#paint1_linear_5_27)"/>
<path d="M143.358 29.38C144.648 29.71 145.398 31 145.038 32.26C144.708 33.55 143.418 34.27 142.158 33.91C140.868 33.58 140.148 32.32 140.508 31.06C140.838 29.77 142.098 29.02 143.358 29.38ZM147.995 24.64C149.165 20.2 152.915 17.83 157.085 18.94C159.275 19.54 160.925 20.92 161.465 22.6L162.005 20.65L164.495 21.31L160.835 35.02C159.605 39.58 156.515 41.32 151.985 40.09C148.775 39.25 146.975 37.54 146.345 34.78L148.715 33.76C149.165 35.95 150.515 37.36 152.765 37.96C155.675 38.74 157.565 37.54 158.435 34.36L158.735 33.19C157.355 34.36 155.225 34.72 153.035 34.15C148.715 32.98 146.735 29.26 147.995 24.64ZM160.235 27.94C161.105 24.7 159.815 22.18 156.905 21.4C153.935 20.59 151.415 22.18 150.575 25.33C149.705 28.51 151.115 31.15 154.085 31.93C156.995 32.71 159.365 31.18 160.235 27.94ZM180.891 20.92L177.021 35.41L174.591 34.78L175.161 32.68C173.601 34 172.041 34.45 169.881 33.88C165.801 32.8 165.171 29.77 166.131 26.17L168.441 17.59L170.991 18.28L168.681 26.86C168.081 29.14 168.291 30.97 170.931 31.69C174.231 32.56 175.761 30.07 176.601 27.01L178.401 20.26L180.891 20.92ZM186.48 16.93C185.31 16.63 184.74 15.61 185.04 14.44C185.34 13.3 186.39 12.7 187.53 13C188.7 13.3 189.3 14.35 188.97 15.49C188.67 16.66 187.65 17.26 186.48 16.93ZM187.14 19.48L183.24 33.97L180.75 33.31L184.65 18.82L187.14 19.48ZM206.391 15.31L200.931 35.59L198.441 34.93L199.011 32.86C197.391 34.12 195.411 34.48 193.251 33.91C189.141 32.8 187.101 28.9 188.301 24.46C189.501 19.99 193.221 17.62 197.331 18.73C199.371 19.27 200.841 20.53 201.771 22.57L203.901 14.65L206.391 15.31ZM197.151 21.16C194.211 20.38 191.751 21.94 190.881 25.15C190.041 28.33 191.391 30.94 194.301 31.72C197.241 32.5 199.701 30.94 200.571 27.73C201.441 24.52 200.061 21.94 197.151 21.16ZM207.067 24.73C208.207 20.47 211.927 17.77 216.307 18.94C220.837 20.14 222.367 24.1 221.227 28.39L221.017 29.14L209.437 26.05L209.407 26.08C208.777 29.05 210.517 31.18 212.977 31.84C215.077 32.41 216.847 31.75 218.167 30.85L218.947 33.13C217.447 34.12 215.167 34.9 212.467 34.18C208.087 33.01 205.837 29.29 207.067 24.73ZM218.827 26.41C219.247 23.95 218.317 21.97 215.707 21.25C212.977 20.53 211.057 21.76 210.067 24.07L218.827 26.41Z" fill="#CCCCCC"/>
<defs>
<linearGradient id="paint0_linear_5_27" x1="9.91672e-07" y1="29.0464" x2="243.696" y2="28.1907" gradientUnits="userSpaceOnUse">
<stop stop-color="#4C4C4C"/>
<stop offset="0.0001" stop-color="#4C4C4C" stop-opacity="0.47"/>
<stop offset="1" stop-color="white" stop-opacity="0.1"/>
</linearGradient>
<linearGradient id="paint1_linear_5_27" x1="15" y1="37.1867" x2="146.064" y2="40.331" gradientUnits="userSpaceOnUse">
<stop stop-color="#47FFE4"/>
<stop offset="1" stop-color="#8BC7FF"/>
</linearGradient>
</defs>
</svg>
